<?xml version="1.0" standalone="no"?><!DOCTYPE svg PUBLIC "-//W3C//DTD SVG 1.1//EN" "http://www.w3.org/Graphics/SVG/1.1/DTD/svg11.dtd"><svg t="1705414655889" class="icon" viewBox="0 0 1024 1024" version="1.1" xmlns="http://www.w3.org/2000/svg" p-id="1025" xmlns:xlink="http://www.w3.org/1999/xlink" width="200" height="200"><path d="M513.8432 94.1056a248.2688 248.2688 0 0 0-248.32 248.32c0 137.1136 130.7136 306.1248 248.32 382.3104 135.3216-121.4976 248.32-245.1968 248.32-382.3104a248.32 248.32 0 0 0-248.32-248.32z m0 366.5408a122.2144 122.2144 0 1 1 122.1632-122.1632A122.2144 122.2144 0 0 1 513.8432 460.8z" fill="#59ADF8" p-id="1026"></path><path d="M961.4848 845.7216l-64.3584-264.448a52.224 52.224 0 0 0-50.688-39.8336h-102.4c-26.2144 36.1472-49.152 64.0512-66.56 83.8144 33.8432 17.2544 54.4256 39.7312 54.4256 64.3584 0 54.1696-99.328 98.0992-221.7984 98.0992s-221.7472-43.9296-221.7472-98.0992c0-23.6032 18.7904-45.2096 50.1248-62.1568-19.2512-27.648-41.216-61.44-57.2928-86.016H178.4832A52.1216 52.1216 0 0 0 128 581.12l-65.4848 264.448a52.1216 52.1216 0 0 0 50.6368 64.6656h797.6448a52.1728 52.1728 0 0 0 50.688-64.512z" fill="#59ADF8" p-id="1027"></path></svg>